<svg width="150" height="150" viewBox="0 0 150 150" fill="none" xmlns="http://www.w3.org/2000/svg">
<rect width="150" height="150" fill="#D1D1D1"/>
<path fill-rule="evenodd" clip-rule="evenodd" d="M15 66.25C15 65.5625 15.5625 65 16.25 65H22.5C23.1875 65 23.75 64.4375 23.75 63.75C23.75 63.0625 23.1875 62.5 22.5 62.5H15C13.625 62.5 12.5 63.625 12.5 65V72.5C12.5 73.1875 13.0625 73.75 13.75 73.75C14.4375 73.75 15 73.1875 15 72.5V66.25ZM22.0125 76.8625L18.3125 81.4875C17.9875 81.9 18.275 82.5 18.8 82.5H31.25C31.7625 82.5 32.0625 81.9125 31.75 81.5L29.25 78.1625C29 77.825 28.5 77.825 28.25 78.1625L26.2125 80.8875L22.9875 76.8625C22.7375 76.55 22.2625 76.55 22.0125 76.8625ZM31.25 70.625C31.25 69.5875 30.4125 68.75 29.375 68.75C28.3375 68.75 27.5 69.5875 27.5 70.625C27.5 71.6625 28.3375 72.5 29.375 72.5C30.4125 72.5 31.25 71.6625 31.25 70.625ZM35 62.5H27.5C26.8125 62.5 26.25 63.0625 26.25 63.75C26.25 64.4375 26.8125 65 27.5 65H33.75C34.4375 65 35 65.5625 35 66.25V72.5C35 73.1875 35.5625 73.75 36.25 73.75C36.9375 73.75 37.5 73.1875 37.5 72.5V65C37.5 63.625 36.375 62.5 35 62.5ZM35 83.75C35 84.4375 34.4375 85 33.75 85H27.5C26.8125 85 26.25 85.5625 26.25 86.25C26.25 86.9375 26.8125 87.5 27.5 87.5H35C36.375 87.5 37.5 86.375 37.5 85V77.5C37.5 76.8125 36.9375 76.25 36.25 76.25C35.5625 76.25 35 76.8125 35 77.5V83.75ZM13.75 76.25C13.0625 76.25 12.5 76.8125 12.5 77.5V85C12.5 86.375 13.625 87.5 15 87.5H22.5C23.1875 87.5 23.75 86.9375 23.75 86.25C23.75 85.5625 23.1875 85 22.5 85H16.25C15.5625 85 15 84.4375 15 83.75V77.5C15 76.8125 14.4375 76.25 13.75 76.25Z" fill="#FFFCFC"/>
<path d="M58.5781 82H56.6934L49.5352 71.043V82H47.6504V67.7812H49.5352L56.7129 78.7871V67.7812H58.5781V82ZM72.8457 75.3496C72.8457 76.7428 72.6113 77.9603 72.1426 79.002C71.6738 80.0371 71.0098 80.8281 70.1504 81.375C69.291 81.9219 68.2884 82.1953 67.1426 82.1953C66.0228 82.1953 65.0299 81.9219 64.1641 81.375C63.2982 80.8216 62.6243 80.0371 62.1426 79.0215C61.6673 77.9993 61.4232 76.8177 61.4102 75.4766V74.4512C61.4102 73.084 61.6478 71.8763 62.123 70.8281C62.5983 69.7799 63.2689 68.9792 64.1348 68.4258C65.0072 67.8659 66.0033 67.5859 67.123 67.5859C68.2624 67.5859 69.265 67.8626 70.1309 68.416C71.0033 68.9629 71.6738 69.7604 72.1426 70.8086C72.6113 71.8503 72.8457 73.0645 72.8457 74.4512V75.3496ZM70.9805 74.4316C70.9805 72.7454 70.6419 71.4531 69.9648 70.5547C69.2878 69.6497 68.3405 69.1973 67.123 69.1973C65.9382 69.1973 65.0039 69.6497 64.3203 70.5547C63.6432 71.4531 63.2949 72.7031 63.2754 74.3047V75.3496C63.2754 76.9837 63.6172 78.2695 64.3008 79.207C64.9909 80.138 65.9382 80.6035 67.1426 80.6035C68.3535 80.6035 69.291 80.1641 69.9551 79.2852C70.6191 78.3997 70.9609 77.1335 70.9805 75.4863V74.4316ZM82.6309 82H80.7559V67.7812H82.6309V82ZM88.4902 67.7812L93.1387 79.3828L97.7871 67.7812H100.219V82H98.3438V76.4629L98.5195 70.4863L93.8516 82H92.416L87.7578 70.5156L87.9434 76.4629V82H86.0684V67.7812H88.4902ZM111.557 78.2891H105.6L104.262 82H102.328L107.758 67.7812H109.398L114.838 82H112.914L111.557 78.2891ZM106.166 76.7461H111L108.578 70.0957L106.166 76.7461ZM127.133 80.1348C126.651 80.8249 125.977 81.3424 125.111 81.6875C124.252 82.026 123.249 82.1953 122.104 82.1953C120.945 82.1953 119.916 81.9251 119.018 81.3848C118.119 80.8379 117.423 80.0632 116.928 79.0605C116.439 78.0579 116.189 76.8958 116.176 75.5742V74.334C116.176 72.1921 116.674 70.5319 117.67 69.3535C118.673 68.1751 120.079 67.5859 121.889 67.5859C123.373 67.5859 124.568 67.9668 125.473 68.7285C126.378 69.4837 126.931 70.5579 127.133 71.9512H125.258C124.906 70.0697 123.786 69.1289 121.898 69.1289C120.642 69.1289 119.688 69.5716 119.037 70.457C118.393 71.3359 118.067 72.612 118.061 74.2852V75.4473C118.061 77.0423 118.425 78.3118 119.154 79.2559C119.883 80.1934 120.87 80.6621 122.113 80.6621C122.816 80.6621 123.432 80.584 123.959 80.4277C124.486 80.2715 124.923 80.0078 125.268 79.6367V76.4434H121.977V74.9199H127.133V80.1348ZM138.305 75.4277H132.143V80.4668H139.301V82H130.268V67.7812H139.203V69.3242H132.143V73.8945H138.305V75.4277Z" fill="white"/>
</svg>
